<svg width="16" height="16" viewBox="0 0 16 16" fill="none" xmlns="http://www.w3.org/2000/svg">
<path d="M14.6666 8.00001V8.00001C14.6646 8.08422 14.6489 8.16754 14.62 8.24667C14.6046 8.27484 14.5867 8.30161 14.5666 8.32667C14.5492 8.36361 14.5292 8.39926 14.5066 8.43334L10.5066 13.1C10.3518 13.281 10.1122 13.3657 9.87804 13.3221C9.64386 13.2786 9.45072 13.1134 9.37137 12.8888C9.29201 12.6642 9.3385 12.4144 9.49331 12.2333L12.5533 8.66667H1.99998C1.63179 8.66667 1.33331 8.3682 1.33331 8.00001C1.33331 7.63182 1.63179 7.33334 1.99998 7.33334H12.5533L9.49331 3.76667C9.3385 3.58566 9.29201 3.3358 9.37137 3.11122C9.45072 2.88664 9.64386 2.72145 9.87804 2.67789C10.1122 2.63432 10.3518 2.71899 10.5066 2.90001L14.5066 7.56667C14.5292 7.60076 14.5492 7.63641 14.5666 7.67334C14.5867 7.69841 14.6046 7.72518 14.62 7.75334C14.6489 7.83247 14.6646 7.91579 14.6666 8.00001Z" fill="#006BFF"/>
</svg>
