<svg width="40" height="40" viewBox="0 0 16 16" fill="none" xmlns="http://www.w3.org/2000/svg">
<path fill-rule="evenodd" clip-rule="evenodd" d="M7.99992 1.33331C4.31802 1.33331 1.33325 4.31808 1.33325 7.99998C1.33325 11.6819 4.31802 14.6666 7.99992 14.6666C11.6818 14.6666 14.6666 11.6819 14.6666 7.99998C14.6666 6.23187 13.9642 4.53618 12.714 3.28593C11.4637 2.03569 9.76803 1.33331 7.99992 1.33331ZM8.47325 11.8066C8.40845 11.8655 8.33404 11.9129 8.25325 11.9466C8.09189 12.018 7.90795 12.018 7.74659 11.9466C7.6658 11.9129 7.59139 11.8655 7.52659 11.8066C7.40179 11.6808 7.33223 11.5105 7.33325 11.3333C7.33223 11.1561 7.40179 10.9858 7.52659 10.86C7.68419 10.7039 7.90909 10.6364 8.12659 10.68C8.17074 10.6862 8.21355 10.6997 8.25325 10.72C8.29573 10.7346 8.33609 10.7547 8.37325 10.78C8.40818 10.8046 8.44157 10.8313 8.47325 10.86C8.59507 10.9877 8.66413 11.1568 8.66659 11.3333C8.66761 11.5105 8.59804 11.6808 8.47325 11.8066ZM7.99992 9.33331C8.36811 9.33331 8.66659 9.03484 8.66659 8.66665V4.66665C8.66659 4.29846 8.36811 3.99998 7.99992 3.99998C7.63173 3.99998 7.33325 4.29846 7.33325 4.66665V8.66665C7.33325 9.03484 7.63173 9.33331 7.99992 9.33331Z" fill="#FF0000"/>
</svg>
