<svg width="64" height="64" viewBox="0 0 64 64" fill="none" xmlns="http://www.w3.org/2000/svg">
<rect width="64" height="64" rx="10" fill="white"/>
<g clip-path="url(#clip0_17_173)">
<path d="M42.0781 21.0018C41.6375 20.5428 41.6375 19.8007 42.0781 19.3466C42.5187 18.8925 43.2312 18.8876 43.6672 19.3466L46.6672 22.4716C46.8781 22.6913 46.9953 22.9891 46.9953 23.3016C46.9953 23.6141 46.8781 23.912 46.6672 24.1317L43.6672 27.2567C43.2266 27.7157 42.5141 27.7157 42.0781 27.2567C41.6422 26.7977 41.6375 26.0555 42.0781 25.6014L43.1562 24.4784L35 24.4686C34.3766 24.4686 33.875 23.9462 33.875 23.2968C33.875 22.6473 34.3766 22.1249 35 22.1249H43.1609L42.0781 21.0018ZM21.9219 37.4081L20.8437 38.5311H29C29.6234 38.5311 30.125 39.0536 30.125 39.703C30.125 40.3524 29.6234 40.8749 29 40.8749H20.8391L21.9172 41.9979C22.3578 42.4569 22.3578 43.1991 21.9172 43.6532C21.4766 44.1073 20.7641 44.1122 20.3281 43.6532L17.3281 40.5331C17.1172 40.3134 17 40.0155 17 39.703C17 39.3905 17.1172 39.0927 17.3281 38.8729L20.3281 35.7479C20.7687 35.2889 21.4812 35.2889 21.9172 35.7479C22.3531 36.2069 22.3578 36.9491 21.9172 37.4032L21.9219 37.4081ZM21.5 22.1249H32.8391C32.6656 22.4764 32.5625 22.872 32.5625 23.2968C32.5625 24.6981 33.6547 25.8358 35 25.8358H40.5031C40.3156 26.6659 40.5312 27.5692 41.15 28.2186C42.1016 29.2098 43.6437 29.2098 44.5953 28.2186L45.5 27.2762V37.7499C45.5 39.4735 44.1547 40.8749 42.5 40.8749H31.1609C31.3344 40.5233 31.4375 40.1278 31.4375 39.703C31.4375 38.3016 30.3453 37.1639 29 37.1639H23.4969C23.6844 36.3339 23.4687 35.4305 22.85 34.7811C21.8984 33.7899 20.3562 33.7899 19.4047 34.7811L18.5 35.7235V25.2499C18.5 23.5262 19.8453 22.1249 21.5 22.1249ZM24.5 25.2499H21.5V28.3749C23.1547 28.3749 24.5 26.9735 24.5 25.2499ZM42.5 34.6249C40.8453 34.6249 39.5 36.0262 39.5 37.7499H42.5V34.6249ZM32 36.1874C33.1935 36.1874 34.3381 35.6935 35.182 34.8144C36.0259 33.9354 36.5 32.7431 36.5 31.4999C36.5 30.2567 36.0259 29.0644 35.182 28.1853C34.3381 27.3062 33.1935 26.8124 32 26.8124C30.8065 26.8124 29.6619 27.3062 28.818 28.1853C27.9741 29.0644 27.5 30.2567 27.5 31.4999C27.5 32.7431 27.9741 33.9354 28.818 34.8144C29.6619 35.6935 30.8065 36.1874 32 36.1874Z" fill="#006BFF"/>
</g>
<defs>
<clipPath id="clip0_17_173">
<rect width="30" height="25" fill="white" transform="translate(17 19)"/>
</clipPath>
</defs>
</svg>
