<svg width="26" height="26" viewBox="0 0 26 26" fill="none" xmlns="http://www.w3.org/2000/svg">
<path fill-rule="evenodd" clip-rule="evenodd" d="M18.4166 7.58329C18.4166 4.59175 15.9915 2.16663 13 2.16663C10.0084 2.16663 7.58329 4.59175 7.58329 7.58329C7.58329 10.5748 10.0084 13 13 13H11.9166C6.53185 13 2.16663 17.3652 2.16663 22.75C2.16663 23.3483 2.65165 23.8333 3.24996 23.8333H22.75C23.3483 23.8333 23.8333 23.3483 23.8333 22.75C23.8333 17.3652 19.4681 13 14.0833 13H13C14.4365 13 15.8143 12.4293 16.8301 11.4135C17.8459 10.3976 18.4166 9.01988 18.4166 7.58329ZM11.9166 15.1666C8.14621 15.1657 4.94776 17.9349 4.40913 21.6666H21.5908C21.0522 17.9349 17.8537 15.1657 14.0833 15.1666H11.9166ZM9.74996 7.58329C9.74996 9.37822 11.205 10.8333 13 10.8333C13.8619 10.8333 14.6886 10.4909 15.2981 9.88139C15.9075 9.2719 16.25 8.44525 16.25 7.58329C16.25 5.78837 14.7949 4.33329 13 4.33329C11.205 4.33329 9.74996 5.78837 9.74996 7.58329Z" fill="white"/>
</svg>
