<svg width="64" height="64" viewBox="0 0 64 64" fill="none" xmlns="http://www.w3.org/2000/svg">
<rect width="64" height="64" rx="10" fill="white"/>
<path d="M43.7778 22.9062C44.2208 22.9062 44.5833 23.2578 44.5833 23.6875V25.25H20.4167V23.6875C20.4167 23.2578 20.7792 22.9062 21.2222 22.9062H43.7778ZM44.5833 29.9375V39.3125C44.5833 39.7422 44.2208 40.0938 43.7778 40.0938H21.2222C20.7792 40.0938 20.4167 39.7422 20.4167 39.3125V29.9375H44.5833ZM21.2222 20.5625C19.445 20.5625 18 21.9639 18 23.6875V39.3125C18 41.0361 19.445 42.4375 21.2222 42.4375H43.7778C45.555 42.4375 47 41.0361 47 39.3125V23.6875C47 21.9639 45.555 20.5625 43.7778 20.5625H21.2222ZM24.0417 35.4062C23.372 35.4062 22.8333 35.9287 22.8333 36.5781C22.8333 37.2275 23.372 37.75 24.0417 37.75H26.4583C27.128 37.75 27.6667 37.2275 27.6667 36.5781C27.6667 35.9287 27.128 35.4062 26.4583 35.4062H24.0417ZM30.4861 35.4062C29.8165 35.4062 29.2778 35.9287 29.2778 36.5781C29.2778 37.2275 29.8165 37.75 30.4861 37.75H36.125C36.7946 37.75 37.3333 37.2275 37.3333 36.5781C37.3333 35.9287 36.7946 35.4062 36.125 35.4062H30.4861Z" fill="#006BFF"/>
</svg>
